<svg viewBox="-500 -500 2024 2024" version="1.1" xmlns="http://www.w3.org/2000/svg"
     style="background: rgba(160,160,160,.1)">
    <path d="M898.2 827.5v-70.3h61.1V858c0 16.9-13.7 30.5-30.5 30.5H93.9c-16.9 0-30.5-13.7-30.5-30.5V165.7c0-16.9 13.7-30.5 30.5-30.5h834.9c16.9 0 30.5 13.7 30.5 30.5v427h-61.1V196.2H124.4v631.3h773.8zM328.1 501.7c-56.2 0-101.8-45.6-101.8-101.8s45.6-101.8 101.8-101.8 101.8 45.6 101.8 101.8-45.6 101.8-101.8 101.8z m0-61.1c22.5 0 40.7-18.2 40.7-40.7s-18.2-40.7-40.7-40.7-40.7 18.2-40.7 40.7 18.2 40.7 40.7 40.7zM203.5 661.2l43.8-42.5c73.4 75.7 148.9 81.4 219.1 21.2 8.6-7.4 11-9.5 32.7-28.5 68.1-59.9 103-86.2 147.8-105.4 62.5-26.8 123.6-23.6 184.6 15.1l-32.8 51.6C721 523.4 664 547.9 539.4 657.4c-21.9 19.3-24.3 21.4-33.2 29-95.3 81.6-207.4 73.1-302.7-25.2z"
          fill="#757575" opacity=".2"></path>
</svg>